# xmcd CD database file
#
# Track frame offsets:
#	180
#	17726
#	32364
#	41380
#	58414
#	69822
#	80142
#	98527
#	110351
#	125237
#	139188
#	151700
#	165398
#	187928
#	199841
#	218030
#
# Disc length: 3072 seconds
#
# Revision: 0
# Processed by: cddbd v1.4PL0 Copyright (c) Steve Scherf et al.
# Submitted via: CDex 1.51
#
DISCID=ce0bfe10
DTITLE=Various Artist - The Best of Floyd Cramer - With Strings
DYEAR=2000
DGENRE=Country
TTITLE0=Georgia On My Mind
TTITLE1=Medley
TTITLE2=San Antonio Rose
TTITLE3=The Wind Beneath My Wings
TTITLE4=Aunrise Serenade
TTITLE5=Blue Eyes Cryin' In The Rain
TTITLE6=Medley
TTITLE7=Don't It Make My Brown Eyes Blue
TTITLE8=Unchained Melody
TTITLE9=Beautiful Dreamer
TTITLE10=Crazy
TTITLE11=You Don't Know Me
TTITLE12=Medley
TTITLE13=Hymne 
TTITLE14=Memory (From "Cats")
TTITLE15=Last Date
EXTD=YEAR: 2000
EXTT0=
EXTT1=
EXTT2=
EXTT3=
EXTT4=
EXTT5=
EXTT6=
EXTT7=
EXTT8=
EXTT9=
EXTT10=
EXTT11=
EXTT12=
EXTT13=
EXTT14=
EXTT15=
PLAYORDER=
